<?xml version="1.0" encoding="UTF-8" standalone="no"?>
<svg t="1705833162261" class="icon" viewBox="0 0 1024 1024" version="1.1" xmlns="http://www.w3.org/2000/svg" p-id="5100" width="200" height="200"><path d="M128 0a128 128 0 0 0-128 128v448a128 128 0 0 0 128 128h155.904l276.672 288a103.872 103.872 0 0 0 144.576 4.992c42.88-38.784 50.88-103.232 18.752-151.36l-61.44-91.84a32 32 0 0 1 26.624-49.792h206.336a128 128 0 0 0 119.808-172.992l-136.96-364.928A256 256 0 0 0 638.72 0H128z m128 640H128a64 64 0 0 1-64-64V128a64 64 0 0 1 64-64h128v576z m350.72 307.584L320 649.28V64L638.656 64a192 192 0 0 1 179.712 124.544l136.96 364.992A64 64 0 0 1 895.424 640h-206.336a96 96 0 0 0-79.808 149.312l61.44 91.904c14.464 21.76 10.88 50.816-8.512 68.352a39.872 39.872 0 0 1-55.488-1.92z" fill="#000000" p-id="5101"></path></svg>
