<?xml version="1.0" encoding="utf-8"?><!DOCTYPE svg PUBLIC "-//W3C//DTD SVG 1.1//EN" "http://www.w3.org/Graphics/SVG/1.1/DTD/svg11.dtd"><svg id="" width="128" height="128" style="width:128px;height:128px;" version="1.1" xmlns="http://www.w3.org/2000/svg" viewBox="0 0 2048 2048" enable-background="new 0 0 2048 2048" xml:space="preserve"><path fill="#000000" d="M292.57 1017.14 l0 -944 q0 -29.71 21.71 -51.42 q21.72 -21.71 51.43 -21.71 q29.72 0 51.44 21.71 q21.72 21.71 21.72 51.42 l0 955.43 q0 118.86 46.86 224.58 q46.86 105.71 126.86 184.57 q80 78.86 186.28 125.14 q106.28 46.29 225.14 46.29 q122.29 0 229.14 -46.86 q106.86 -46.86 185.71 -127.42 q78.86 -80.57 124.57 -188 q45.71 -107.43 45.71 -229.72 l0 -944 q0 -29.71 21.71 -51.42 q21.71 -21.71 51.43 -21.71 q29.71 0 51.43 21.71 q21.71 21.71 21.71 51.42 l0 944 q0 101.72 -25.71 195.43 q-25.72 93.72 -73.14 176 q-47.43 82.29 -114.29 149.71 q-66.86 67.43 -148 115.43 q-81.14 48 -174.86 74.86 q-93.72 26.86 -195.43 26.86 q-101.71 0 -195.42 -26.86 q-93.72 -26.86 -174.86 -74.86 q-81.14 -48 -148 -115.43 q-66.86 -67.42 -114.29 -149.71 q-47.43 -82.28 -73.15 -176.57 q-25.71 -94.29 -25.71 -194.86 ZM365.71 2048 q-29.71 0 -51.43 -21.72 q-21.71 -21.71 -21.71 -51.42 q0 -29.72 21.71 -51.43 q21.72 -21.72 51.43 -21.72 l1316.58 0 q29.71 0 51.43 21.72 q21.71 21.71 21.71 51.43 q0 29.71 -21.71 51.42 q-21.72 21.72 -51.43 21.72 l-1316.58 0 Z"/></svg>