<?xml version="1.0" encoding="utf-8"?><!DOCTYPE svg PUBLIC "-//W3C//DTD SVG 1.1//EN" "http://www.w3.org/Graphics/SVG/1.1/DTD/svg11.dtd"><svg id="" width="128" height="128" style="width:128px;height:128px;" version="1.1" xmlns="http://www.w3.org/2000/svg" viewBox="0 0 2048 2048" enable-background="new 0 0 2048 2048" xml:space="preserve"><path fill="#000000" d="M2048 1984 q0 26 -19 45 q-19 19 -45 19 q-26 0 -45 -19 l-1920 -1920 q-19 -19 -19 -45 q0 -26 19 -45 q19 -19 45 -19 q26 0 45 19 l1920 1920 q19 19 19 45 ZM768 384 q-26 0 -52 2 q-26 2 -52 6 l-107 -106 q102 -30 211 -30 l678 0 l-147 -147 q-19 -19 -19 -45 q0 -26 19 -45 q19 -19 45 -19 q26 0 45 19 l256 256 q19 19 19 45 q0 26 -19 45 l-256 256 q-19 19 -45 19 q-26 0 -45 -19 q-19 -19 -19 -45 q0 -26 19 -45 l147 -147 l-678 0 ZM314 405 l92 91 q-66 44 -117.5 102.5 q-51.5 58.5 -87 126.5 q-35.5 68 -54.5 144 q-19 76 -19 155 q0 109 32.5 201 q32.5 92 93.5 181 q7 10 10 17.5 q3 7.5 3 20.5 q0 26 -19 45.5 q-19 19.5 -45 19.5 q-17 0 -28.5 -7 q-11.5 -7 -22.5 -19 q-13 -14 -23.5 -32 q-10.5 -18 -20.5 -34 q-54 -90 -81 -189.5 q-27 -99.5 -27 -203.5 q0 -189 82.5 -347.5 q82.5 -158.5 231.5 -271.5 ZM1740 1469 q86 -90 133 -205 q47 -115 47 -240 q0 -109 -32.5 -201 q-32.5 -92 -93.5 -181 q-7 -10 -10 -17.5 q-3 -7.5 -3 -20.5 q0 -26 19 -45.5 q19 -19.5 45 -19.5 q17 0 28.5 7 q11.5 7 22.5 19 q11 13 21 28.5 q10 15.5 19 30.5 q55 91 83.5 192.5 q28.5 101.5 28.5 207.5 q0 150 -56 288.5 q-56 138.5 -161 246.5 l-91 -90 ZM603 1664 l677 0 q126 0 245 -49 l96 97 q-80 39 -165.5 59.5 q-85.5 20.5 -175.5 20.5 l-677 0 l146 147 q19 19 19 45 q0 26 -19 45 q-19 19 -45 19 q-26 0 -45 -19 l-256 -256 q-19 -19 -19 -45 q0 -26 19 -45 l256 -256 q19 -19 45 -19 q26 0 45 19 q19 19 19 45 q0 26 -19 45 l-146 147 Z"/></svg>