<?xml version="1.0" encoding="utf-8"?><!DOCTYPE svg PUBLIC "-//W3C//DTD SVG 1.1//EN" "http://www.w3.org/Graphics/SVG/1.1/DTD/svg11.dtd"><svg id="" width="128" height="128" style="width:128px;height:128px;" version="1.1" xmlns="http://www.w3.org/2000/svg" viewBox="0 0 2048 2048" enable-background="new 0 0 2048 2048" xml:space="preserve"><path fill="#000000" d="M768 384 q-133 0 -249.5 50 q-116.5 50 -203.5 137 q-87 87 -137 203.5 q-50 116.5 -50 249.5 q0 81 21 162.5 q21 81.5 62 152.5 q6 11 15.5 24 q9.5 13 18.5 27 q9 14 15.5 28 q6.5 14 6.5 26 q0 26 -19 45 q-19 19 -45 19 q-17 0 -28.5 -7 q-11.5 -7 -22.5 -19 q-37 -43 -65.5 -99 q-28.5 -56 -47.5 -117 q-19 -61 -29 -123.5 q-10 -62.5 -10 -118.5 q0 -105 27.5 -203 q27.5 -98 77.5 -183.5 q50 -85.5 120 -155.5 q70 -70 155 -120.5 q85 -50.5 183.5 -78 q98.5 -27.5 204.5 -27.5 l678 0 l-147 -147 q-19 -19 -19 -45 q0 -26 19 -45 q19 -19 45 -19 q26 0 45 19 l256 256 q19 19 19 45 q0 26 -19 45 l-256 256 q-19 19 -45 19 q-26 0 -45 -19 q-19 -19 -19 -45 q0 -26 19 -45 l147 -147 l-678 0 ZM2048 1024 q0 106 -27.5 203.5 q-27.5 97.5 -77.5 183 q-50 85.5 -120 155.5 q-70 70 -155 120.5 q-85 50.5 -183.5 78 q-98.5 27.5 -204.5 27.5 l-677 0 l146 147 q19 19 19 45 q0 26 -19 45 q-19 19 -45 19 q-26 0 -45 -19 l-256 -256 q-19 -19 -19 -45 q0 -26 19 -45 l256 -256 q19 -19 45 -19 q26 0 45 19 q19 19 19 45 q0 26 -19 45 l-146 147 l677 0 q133 0 249.5 -50 q116.5 -50 203.5 -137 q87 -87 137 -203.5 q50 -116.5 50 -249.5 q0 -57 -8 -106 q-8 -49 -24 -95 q-16 -46 -39.5 -90 q-23.5 -44 -54.5 -91 q-7 -11 -10 -18 q-3 -7 -3 -20 q0 -26 18.5 -45.5 q18.5 -19.5 45.5 -19.5 q17 0 28.5 7 q11.5 7 22.5 19 q37 43 65.5 99 q28.5 56 47.5 117.5 q19 61.5 29 124 q10 62.5 10 118.5 Z"/></svg>