<?xml version="1.0" encoding="utf-8"?><!DOCTYPE svg PUBLIC "-//W3C//DTD SVG 1.1//EN" "http://www.w3.org/Graphics/SVG/1.1/DTD/svg11.dtd"><svg id="" width="128" height="128" style="width:128px;height:128px;" version="1.1" xmlns="http://www.w3.org/2000/svg" viewBox="0 0 2048 2048" enable-background="new 0 0 2048 2048" xml:space="preserve"><path fill="#000000" d="M768 384 q-133 0 -249.5 50 q-116.5 50 -203.5 137 q-87 87 -137 203.5 q-50 116.5 -50 249.5 q0 59 8.5 107.5 q8.5 48.5 24.5 93.5 q16 45 40 88.5 q24 43.5 54 92.5 q6 10 9.5 18.5 q3.5 8.5 3.5 19.5 q0 26 -19.5 45 q-19.5 19 -45.5 19 q-17 0 -28.5 -7 q-11.5 -7 -22.5 -19 q-36 -42 -64.5 -98 q-28.5 -56 -48 -118 q-19.5 -62 -29.5 -125 q-10 -63 -10 -117 q0 -155 58 -294.5 q58 -139.5 167 -248.5 q109 -109 248.5 -167 q139.5 -58 294.5 -58 l678 0 l-147 -147 q-19 -19 -19 -45 q0 -26 19 -45 q19 -19 45 -19 q26 0 45 19 l256 256 q19 19 19 45 q0 26 -19 45 l-256 256 q-19 19 -45 19 q-26 0 -45 -19 q-19 -19 -19 -45 q0 -26 19 -45 l147 -147 l-678 0 ZM1781 604 q0 -26 18.5 -45.5 q18.5 -19.5 45.5 -19.5 q17 0 28.5 7 q11.5 7 22.5 19 q36 41 64 96 q28 55 47 115.5 q19 60.5 29.5 122 q10.5 61.5 11.5 115.5 q-32 -39 -68 -74.5 q-36 -35.5 -77 -64.5 q-16 -66 -44.5 -121 q-28.5 -55 -64.5 -112 q-7 -11 -10 -18 q-3 -7 -3 -20 ZM2048 1472 q0 119 -45.5 224 q-45.5 105 -123.5 183 q-78 78 -183 123.5 q-105 45.5 -224 45.5 q-120 0 -225 -45 q-105 -45 -183 -123 q-78 -78 -123 -183 q-45 -105 -45 -225 q0 -119 45.5 -224 q45.5 -105 123.5 -183 q78 -78 183 -123.5 q105 -45.5 224 -45.5 q79 0 152.5 20.5 q73.5 20.5 137.5 58 q64 37.5 117 90.5 q53 53 90.5 117 q37.5 64 58 137.5 q20.5 73.5 20.5 152.5 ZM1536 1216 q0 -26 -19 -45 q-19 -19 -45 -19 q-26 0 -45 19 l-128 128 q-19 19 -19 45 q0 26 19 45 q19 19 45 19 q22 0 36 -11.5 q14 -11.5 28 -25.5 l0 357 q0 26 19 45 q19 19 45 19 q26 0 45 -19 q19 -19 19 -45 l0 -512 ZM761 1664 q18 67 48 128 l-206 0 l146 147 q19 19 19 45 q0 26 -19 45 q-19 19 -45 19 q-26 0 -45 -19 l-256 -256 q-19 -19 -19 -45 q0 -26 19 -45 l256 -256 q19 -19 45 -19 q20 0 34 10 q-1 14 -1.5 27.5 q-0.5 13.5 -0.5 27.5 q0 14 0.5 27.5 q0.5 13.5 1.5 27.5 l-135 136 l158 0 Z"/></svg>