<?xml version="1.0" encoding="utf-8"?><!DOCTYPE svg PUBLIC "-//W3C//DTD SVG 1.1//EN" "http://www.w3.org/Graphics/SVG/1.1/DTD/svg11.dtd"><svg id="" width="128" height="128" style="width:128px;height:128px;" version="1.1" xmlns="http://www.w3.org/2000/svg" viewBox="0 0 2048 2048" enable-background="new 0 0 2048 2048" xml:space="preserve"><path fill="#000000" d="M497.62 2048 q-36.82 0 -69.61 -13.8 q-32.79 -13.81 -57.53 -37.97 q-24.74 -24.16 -39.12 -56.38 q-14.38 -32.21 -14.38 -69.04 l0 -1679.82 q0 -37.97 15.53 -72.49 q15.53 -34.52 42 -60.97 q26.47 -26.46 60.98 -42 q34.51 -15.54 72.49 -15.54 l515.45 0 q121.96 0 228.97 46.6 q107 46.6 186.97 126.56 q79.96 79.96 126.56 186.97 q46.6 107 46.6 228.97 q0 97.8 -30.49 185.81 q-30.49 88.01 -86.86 167.4 q115.05 89.74 175.45 215.16 q60.4 125.41 60.4 271.53 q0 90.89 -21.86 177.76 q-21.86 86.87 -73.64 162.8 q-43.72 64.44 -101.82 115.64 q-58.1 51.2 -125.98 87.44 q-67.88 36.24 -143.25 55.22 q-75.36 18.98 -152.45 18.98 q-154.18 0 -307.2 0.58 q-153.03 0.58 -307.2 0.58 ZM1009.62 810 q46.02 0 86.29 -17.26 q40.27 -17.26 70.18 -47.17 q29.91 -29.92 47.17 -70.19 q17.26 -40.27 17.26 -86.29 q0 -46.02 -17.26 -86.29 q-17.26 -40.27 -47.17 -70.19 q-29.91 -29.92 -70.18 -47.18 q-40.27 -17.26 -86.29 -17.26 l-324.46 0 l0 441.82 l324.46 0 ZM1097.06 1693.63 q54.08 0 100.1 -20.14 q46.02 -20.13 79.38 -54.65 q33.37 -34.52 52.35 -81.12 q18.99 -46.59 18.99 -100.67 q0 -50.62 -20.14 -97.22 q-20.13 -46.6 -54.07 -82.84 q-33.94 -36.24 -79.39 -57.52 q-45.44 -21.29 -97.22 -21.29 l-411.9 0 l0 515.45 l411.9 0 Z"/></svg>