<?xml version="1.0" encoding="utf-8"?><!DOCTYPE svg PUBLIC "-//W3C//DTD SVG 1.1//EN" "http://www.w3.org/Graphics/SVG/1.1/DTD/svg11.dtd"><svg id="" width="128" height="128" style="width:128px;height:128px;" version="1.1" xmlns="http://www.w3.org/2000/svg" viewBox="0 0 2048 2048" enable-background="new 0 0 2048 2048" xml:space="preserve"><path fill="#000000" d="M1829 385 q-105 3 -207 24 q-102 21 -201 57 q-121 45 -223 119 q-102 74 -193 164 q-89 88 -182 167.5 q-93 79.5 -199 145.5 q-56 35 -125 73.5 q-69 38.5 -143.5 70.5 q-74.5 32 -149.5 53 q-75 21 -142 21 q-26 0 -45 -19 q-19 -19 -19 -45 q0 -26 19 -45 q19 -19 45 -19 q47 0 94 -12 q47 -12 91 -28 q74 -26 147 -64 q73 -38 143 -83 q70 -45 135.5 -95.5 q65.5 -50.5 124.5 -101.5 q-93 -81 -193 -152 q-100 -71 -211 -127 q-34 -17 -75.5 -35.5 q-41.5 -18.5 -85.5 -34 q-44 -15.5 -88 -25.5 q-44 -10 -82 -10 q-26 0 -45 -19 q-19 -19 -19 -45 q0 -26 19 -45 q19 -19 45 -19 q67 0 140.5 19.5 q73.5 19.5 149.5 52 q76 32.5 151.5 75.5 q75.5 43 145.5 90.5 q70 47.5 131.5 96 q61.5 48.5 110.5 91.5 q52 -53 108 -102.5 q56 -49.5 116 -93 q60 -43.5 125 -79 q65 -35.5 136 -61.5 q109 -39 223 -62 q114 -23 230 -26 l-148 -148 q-19 -19 -19 -45 q0 -26 19 -45 q19 -19 45 -19 q26 0 45 19 l256 256 q19 19 19 45 q0 26 -19 45 l-256 256 q-19 19 -45 19 q-26 0 -45 -19 q-19 -19 -19 -45 q0 -26 19 -45 l146 -146 ZM2048 1216 q0 26 -19 45 l-256 256 q-19 19 -45 19 q-26 0 -45 -19 q-19 -19 -19 -45 q0 -26 19 -45 l148 -148 q-119 -3 -228.5 -23 q-109.5 -20 -210.5 -59 q-101 -39 -196 -97 q-95 -58 -186 -135 q24 -22 47.5 -43.5 q23.5 -21.5 46.5 -44.5 q81 68 165 118 q84 50 173 83.5 q89 33.5 185.5 51 q96.5 17.5 201.5 21.5 l-146 -146 q-19 -19 -19 -45 q0 -26 19 -45 q19 -19 45 -19 q26 0 45 19 l256 256 q19 19 19 45 Z"/></svg>